<?xml version="1.0" encoding="UTF-8" standalone="no" ?>
<!DOCTYPE svg PUBLIC "-//W3C//DTD SVG 1.1//EN" "http://www.w3.org/Graphics/SVG/1.1/DTD/svg11.dtd">
<svg xmlns="http://www.w3.org/2000/svg" xmlns:xlink="http://www.w3.org/1999/xlink" version="1.1" width="387" height="159" viewBox="0 0 387 159" xml:space="preserve">
<desc>Created with Fabric.js 4.6.0</desc>
<defs>
</defs>
<g transform="matrix(1 0 0 1 193.5 79.27)" id="BeWJQ2FbgIZQfMoZQvXzH"  >
<g style="" vector-effect="non-scaling-stroke"   >
		<g transform="matrix(1 0 0 1 140.49 0)" id="EHow2QRfYW1LHkIAFc4Z3"  >
<g style="" vector-effect="non-scaling-stroke"   >
		<g transform="matrix(1 0 0 1 0 0)" id="IEoKcb9E9bF2_KUCkdpVs"  >
<path style="stroke: rgb(178,180,178); stroke-width: 0; stroke-dasharray: none; stroke-linecap: butt; stroke-dashoffset: 0; stroke-linejoin: miter; stroke-miterlimit: 4; fill: rgb(178,180,178); fill-rule: nonzero; opacity: 1;" vector-effect="non-scaling-stroke"  transform=" translate(-50, -50)" d="M 50 0 C 77.6 0 100 22.4 100 50 C 100 77.6 77.6 100 50 100 C 22.4 100 0 77.6 0 50 C 0 22.4 22.4 0 50 0 Z" stroke-linecap="round" />
</g>
		<g transform="matrix(0.48 0 0 0.48 0 0)" id="zaLBSXnifFfDUUc5m-7cd"  >
<path style="stroke: rgb(255,255,255); stroke-width: 6; stroke-dasharray: none; stroke-linecap: butt; stroke-dashoffset: 0; stroke-linejoin: miter; stroke-miterlimit: 4; fill: rgb(178,180,178); fill-rule: nonzero; opacity: 1;" vector-effect="non-scaling-stroke"  transform=" translate(0, 0)" d="M 0 -50 C 27.6 -50 50 -27.6 50 0 C 50 27.6 27.6 50 0 50 C -27.6 50 -50 27.6 -50 0 C -50 -27.6 -27.6 -50 0 -50 z" stroke-linecap="round" />
</g>
		<g transform="matrix(-0.39 0 0 -1 30.77 0)" id="E4hEMmXdJlUr3IfoQvNuM"  >
<path style="stroke: none; stroke-width: 1; stroke-dasharray: none; stroke-linecap: butt; stroke-dashoffset: 0; stroke-linejoin: miter; stroke-miterlimit: 4; fill: rgb(255,255,255); fill-rule: nonzero; opacity: 1;" vector-effect="non-scaling-stroke"  transform=" translate(-16.92, -2.75)" d="M 24.73951 0 L 9.0923 0 C 4.10211 0 0 1.15366 0 2.75 C 0 4.34634 4.10211 5.5 9.0923 5.5 L 24.73951 5.5 C 29.7297 5.5 33.83181 4.34634 33.83181 2.75 C 33.83181 1.15366 29.729699999999998 0 24.739509999999996 0 z" stroke-linecap="round" />
</g>
</g>
</g>
		<g transform="matrix(1 0 0 1 -54.68 0)" id="wkvfWpB33ax6o6sEJumOY"  >
<g style="" vector-effect="non-scaling-stroke"   >
		<g transform="matrix(2.88 0 0 1.64 0 0)" id="fnYbngiQAB071-3xWHCH0"  >
<path style="stroke: rgb(178,180,178); stroke-width: 0; stroke-dasharray: none; stroke-linecap: butt; stroke-dashoffset: 0; stroke-linejoin: miter; stroke-miterlimit: 4; fill: rgb(178,180,178); fill-rule: nonzero; opacity: 1;" vector-effect="non-scaling-stroke"  transform=" translate(0, 0)" d="M -47.11815 -34.93806 C -47.11815 -41.66494 -44.01293 -47.11816 -40.18245 -47.11816 L 40.182469999999995 -47.11816 L 40.182469999999995 -47.11816 C 44.01295 -47.11816 47.11816999999999 -41.66494 47.11816999999999 -34.93806000000001 L 47.11816999999999 34.93804999999999 L 47.11816999999999 34.93804999999999 C 47.11816999999999 41.66492999999999 44.01294999999999 47.118149999999986 40.182469999999995 47.118149999999986 L -40.18245 47.118149999999986 L -40.18245 47.118149999999986 C -44.012930000000004 47.118149999999986 -47.11815 41.664929999999984 -47.11815 34.93804999999999 z" stroke-linecap="round" />
</g>
		<g transform="matrix(1 0 0 1 -1.33 16.04)" id="0Hi3ylK_NTHkkci-UUycq"  >
<g style="" vector-effect="non-scaling-stroke"   >
		<g transform="matrix(1 0 0 1 -110.48 37.5)" id="veOOrjgnX1_R4TglmjMpl"  >
<path style="stroke: rgb(255,255,255); stroke-width: 0; stroke-dasharray: none; stroke-linecap: butt; stroke-dashoffset: 0; stroke-linejoin: miter; stroke-miterlimit: 4; fill: rgb(255,255,255); fill-rule: nonzero; opacity: 1;" vector-effect="non-scaling-stroke"  transform=" translate(-10, -10)" d="M 0 0 L 20 0 L 20 20 L 0 20 z" stroke-linecap="round" />
</g>
		<g transform="matrix(1 0 0 1 -85.48 37.5)" id="1DtY449kPr54uLOvldrgS"  >
<path style="stroke: rgb(255,255,255); stroke-width: 0; stroke-dasharray: none; stroke-linecap: butt; stroke-dashoffset: 0; stroke-linejoin: miter; stroke-miterlimit: 4; fill: rgb(255,255,255); fill-rule: nonzero; opacity: 1;" vector-effect="non-scaling-stroke"  transform=" translate(-10, -10)" d="M 0 0 L 20 0 L 20 20 L 0 20 z" stroke-linecap="round" />
</g>
		<g transform="matrix(1 0 0 1 -60.48 37.5)" id="uzETPVlXzf4pUVVFXViBQ"  >
<path style="stroke: rgb(255,255,255); stroke-width: 0; stroke-dasharray: none; stroke-linecap: butt; stroke-dashoffset: 0; stroke-linejoin: miter; stroke-miterlimit: 4; fill: rgb(255,255,255); fill-rule: nonzero; opacity: 1;" vector-effect="non-scaling-stroke"  transform=" translate(-10, -10)" d="M 0 0 L 20 0 L 20 20 L 0 20 z" stroke-linecap="round" />
</g>
		<g transform="matrix(1 0 0 1 10.27 37.5)" id="NtScPgNUV-PetB9NR9gee"  >
<path style="stroke: rgb(255,255,255); stroke-width: 0; stroke-dasharray: none; stroke-linecap: butt; stroke-dashoffset: 0; stroke-linejoin: miter; stroke-miterlimit: 4; fill: rgb(255,255,255); fill-rule: nonzero; opacity: 1;" vector-effect="non-scaling-stroke"  transform=" translate(-55.42, -10)" d="M 0 0 L 110.83766 0 L 110.83766 20 L 0 20 z" stroke-linecap="round" />
</g>
		<g transform="matrix(1 0 0 1 83.09 37.5)" id="6njlFx30w97osvuDrKRCV"  >
<path style="stroke: rgb(255,255,255); stroke-width: 0; stroke-dasharray: none; stroke-linecap: butt; stroke-dashoffset: 0; stroke-linejoin: miter; stroke-miterlimit: 4; fill: rgb(255,255,255); fill-rule: nonzero; opacity: 1;" vector-effect="non-scaling-stroke"  transform=" translate(-12.4, -10)" d="M 0 0 L 24.79675 0 L 24.79675 20 L 0 20 z" stroke-linecap="round" />
</g>
		<g transform="matrix(1 0 0 1 110.48 37.5)" id="EQN_Yb_ixxTUqbk1U5Wxt"  >
<path style="stroke: rgb(255,255,255); stroke-width: 0; stroke-dasharray: none; stroke-linecap: butt; stroke-dashoffset: 0; stroke-linejoin: miter; stroke-miterlimit: 4; fill: rgb(255,255,255); fill-rule: nonzero; opacity: 1;" vector-effect="non-scaling-stroke"  transform=" translate(-10, -10)" d="M 0 0 L 20 0 L 20 20 L 0 20 z" stroke-linecap="round" />
</g>
		<g transform="matrix(1.95 0 0 1 -100.96 12.5)" id="Eb7a5PUhQkorUXSq88Htk"  >
<path style="stroke: rgb(255,255,255); stroke-width: 0; stroke-dasharray: none; stroke-linecap: butt; stroke-dashoffset: 0; stroke-linejoin: miter; stroke-miterlimit: 4; fill: rgb(255,255,255); fill-rule: nonzero; opacity: 1;" vector-effect="non-scaling-stroke"  transform=" translate(0, 0)" d="M -10 -10 L 10 -10 L 10 10 L -10 10 z" stroke-linecap="round" />
</g>
		<g transform="matrix(1 0 0 1 -66.43 12.5)" id="T9321OQs8an3XJnyIwT5a"  >
<path style="stroke: rgb(255,255,255); stroke-width: 0; stroke-dasharray: none; stroke-linecap: butt; stroke-dashoffset: 0; stroke-linejoin: miter; stroke-miterlimit: 4; fill: rgb(255,255,255); fill-rule: nonzero; opacity: 1;" vector-effect="non-scaling-stroke"  transform=" translate(-10, -10)" d="M 0 0 L 20 0 L 20 20 L 0 20 z" stroke-linecap="round" />
</g>
		<g transform="matrix(1 0 0 1 -41.43 12.5)" id="QeqpyBSvb1Gnkjhyj1BgN"  >
<path style="stroke: rgb(255,255,255); stroke-width: 0; stroke-dasharray: none; stroke-linecap: butt; stroke-dashoffset: 0; stroke-linejoin: miter; stroke-miterlimit: 4; fill: rgb(255,255,255); fill-rule: nonzero; opacity: 1;" vector-effect="non-scaling-stroke"  transform=" translate(-10, -10)" d="M 0 0 L 20 0 L 20 20 L 0 20 z" stroke-linecap="round" />
</g>
		<g transform="matrix(1 0 0 1 -16.43 12.5)" id="JsavRWGx9WLc4BI31IWTi"  >
<path style="stroke: rgb(255,255,255); stroke-width: 0; stroke-dasharray: none; stroke-linecap: butt; stroke-dashoffset: 0; stroke-linejoin: miter; stroke-miterlimit: 4; fill: rgb(255,255,255); fill-rule: nonzero; opacity: 1;" vector-effect="non-scaling-stroke"  transform=" translate(-10, -10)" d="M 0 0 L 20 0 L 20 20 L 0 20 z" stroke-linecap="round" />
</g>
		<g transform="matrix(1 0 0 1 8.57 12.5)" id="dbI_ZrUVPU5lAJ1Mczn8x"  >
<path style="stroke: rgb(255,255,255); stroke-width: 0; stroke-dasharray: none; stroke-linecap: butt; stroke-dashoffset: 0; stroke-linejoin: miter; stroke-miterlimit: 4; fill: rgb(255,255,255); fill-rule: nonzero; opacity: 1;" vector-effect="non-scaling-stroke"  transform=" translate(-10, -10)" d="M 0 0 L 20 0 L 20 20 L 0 20 z" stroke-linecap="round" />
</g>
		<g transform="matrix(1 0 0 1 33.57 12.5)" id="_4iu6idqKiAjDtWjlLrp_"  >
<path style="stroke: rgb(255,255,255); stroke-width: 0; stroke-dasharray: none; stroke-linecap: butt; stroke-dashoffset: 0; stroke-linejoin: miter; stroke-miterlimit: 4; fill: rgb(255,255,255); fill-rule: nonzero; opacity: 1;" vector-effect="non-scaling-stroke"  transform=" translate(-10, -10)" d="M 0 0 L 20 0 L 20 20 L 0 20 z" stroke-linecap="round" />
</g>
		<g transform="matrix(2.35 0 0 1 97.03 12.5)" id="8et78jMWkL9LoyXlhqrGK"  >
<path style="stroke: rgb(255,255,255); stroke-width: 0; stroke-dasharray: none; stroke-linecap: butt; stroke-dashoffset: 0; stroke-linejoin: miter; stroke-miterlimit: 4; fill: rgb(255,255,255); fill-rule: nonzero; opacity: 1;" vector-effect="non-scaling-stroke"  transform=" translate(0, 0)" d="M -10 -10 L 10 -10 L 10 10 L -10 10 z" stroke-linecap="round" />
</g>
		<g transform="matrix(1 0 0 1 58.57 12.5)" id="7RSy7UewX3LPCpRaTZP7J"  >
<path style="stroke: rgb(255,255,255); stroke-width: 0; stroke-dasharray: none; stroke-linecap: butt; stroke-dashoffset: 0; stroke-linejoin: miter; stroke-miterlimit: 4; fill: rgb(255,255,255); fill-rule: nonzero; opacity: 1;" vector-effect="non-scaling-stroke"  transform=" translate(-10, -10)" d="M 0 0 L 20 0 L 20 20 L 0 20 z" stroke-linecap="round" />
</g>
		<g transform="matrix(1.51 0 0 1 -105.35 -12.5)" id="CWw_vKPe_jCuNCjsibXHj"  >
<path style="stroke: rgb(255,255,255); stroke-width: 0; stroke-dasharray: none; stroke-linecap: butt; stroke-dashoffset: 0; stroke-linejoin: miter; stroke-miterlimit: 4; fill: rgb(255,255,255); fill-rule: nonzero; opacity: 1;" vector-effect="non-scaling-stroke"  transform=" translate(0, 0)" d="M -10 -10 L 10 -10 L 10 10 L -10 10 z" stroke-linecap="round" />
</g>
		<g transform="matrix(1 0 0 1 -74.72 -12.5)" id="wrHBSztAYiy9GF_n0duhX"  >
<path style="stroke: rgb(255,255,255); stroke-width: 0; stroke-dasharray: none; stroke-linecap: butt; stroke-dashoffset: 0; stroke-linejoin: miter; stroke-miterlimit: 4; fill: rgb(255,255,255); fill-rule: nonzero; opacity: 1;" vector-effect="non-scaling-stroke"  transform=" translate(-10, -10)" d="M 0 0 L 20 0 L 20 20 L 0 20 z" stroke-linecap="round" />
</g>
		<g transform="matrix(1 0 0 1 -49.72 -12.5)" id="84umGvBlK1iMh036vQ8Fq"  >
<path style="stroke: rgb(255,255,255); stroke-width: 0; stroke-dasharray: none; stroke-linecap: butt; stroke-dashoffset: 0; stroke-linejoin: miter; stroke-miterlimit: 4; fill: rgb(255,255,255); fill-rule: nonzero; opacity: 1;" vector-effect="non-scaling-stroke"  transform=" translate(-10, -10)" d="M 0 0 L 20 0 L 20 20 L 0 20 z" stroke-linecap="round" />
</g>
		<g transform="matrix(1 0 0 1 -24.72 -12.5)" id="CMQXrMCsgOSR2OTb7gD-Q"  >
<path style="stroke: rgb(255,255,255); stroke-width: 0; stroke-dasharray: none; stroke-linecap: butt; stroke-dashoffset: 0; stroke-linejoin: miter; stroke-miterlimit: 4; fill: rgb(255,255,255); fill-rule: nonzero; opacity: 1;" vector-effect="non-scaling-stroke"  transform=" translate(-10, -10)" d="M 0 0 L 20 0 L 20 20 L 0 20 z" stroke-linecap="round" />
</g>
		<g transform="matrix(1 0 0 1 0.28 -12.5)" id="H0McrwgJfZXt1p1QX-K7B"  >
<path style="stroke: rgb(255,255,255); stroke-width: 0; stroke-dasharray: none; stroke-linecap: butt; stroke-dashoffset: 0; stroke-linejoin: miter; stroke-miterlimit: 4; fill: rgb(255,255,255); fill-rule: nonzero; opacity: 1;" vector-effect="non-scaling-stroke"  transform=" translate(-10, -10)" d="M 0 0 L 20 0 L 20 20 L 0 20 z" stroke-linecap="round" />
</g>
		<g transform="matrix(1 0 0 1 25.28 -12.5)" id="8IzQmo7FBUnI8fKllcDnL"  >
<path style="stroke: rgb(255,255,255); stroke-width: 0; stroke-dasharray: none; stroke-linecap: butt; stroke-dashoffset: 0; stroke-linejoin: miter; stroke-miterlimit: 4; fill: rgb(255,255,255); fill-rule: nonzero; opacity: 1;" vector-effect="non-scaling-stroke"  transform=" translate(-10, -10)" d="M 0 0 L 20 0 L 20 20 L 0 20 z" stroke-linecap="round" />
</g>
		<g transform="matrix(1 0 0 1 50.28 -12.5)" id="0mki5fcnoaagjyC6B0eyv"  >
<path style="stroke: rgb(255,255,255); stroke-width: 0; stroke-dasharray: none; stroke-linecap: butt; stroke-dashoffset: 0; stroke-linejoin: miter; stroke-miterlimit: 4; fill: rgb(255,255,255); fill-rule: nonzero; opacity: 1;" vector-effect="non-scaling-stroke"  transform=" translate(-10, -10)" d="M 0 0 L 20 0 L 20 20 L 0 20 z" stroke-linecap="round" />
</g>
		<g transform="matrix(1.51 0 0 1 105.38 -12.5)" id="G-Lgzp6xm-gh_cjEqQCZ-"  >
<path style="stroke: rgb(255,255,255); stroke-width: 0; stroke-dasharray: none; stroke-linecap: butt; stroke-dashoffset: 0; stroke-linejoin: miter; stroke-miterlimit: 4; fill: rgb(255,255,255); fill-rule: nonzero; opacity: 1;" vector-effect="non-scaling-stroke"  transform=" translate(0, 0)" d="M -10 -10 L 10 -10 L 10 10 L -10 10 z" stroke-linecap="round" />
</g>
		<g transform="matrix(1 0 0 1 75.28 -12.5)" id="ObP2MYfPytp9Ie4dsgKF2"  >
<path style="stroke: rgb(255,255,255); stroke-width: 0; stroke-dasharray: none; stroke-linecap: butt; stroke-dashoffset: 0; stroke-linejoin: miter; stroke-miterlimit: 4; fill: rgb(255,255,255); fill-rule: nonzero; opacity: 1;" vector-effect="non-scaling-stroke"  transform=" translate(-10, -10)" d="M 0 0 L 20 0 L 20 20 L 0 20 z" stroke-linecap="round" />
</g>
		<g transform="matrix(1 0 0 1 -110.48 -37.5)" id="shnMAbeAmzMSq5EqRnudO"  >
<path style="stroke: rgb(255,255,255); stroke-width: 0; stroke-dasharray: none; stroke-linecap: butt; stroke-dashoffset: 0; stroke-linejoin: miter; stroke-miterlimit: 4; fill: rgb(255,255,255); fill-rule: nonzero; opacity: 1;" vector-effect="non-scaling-stroke"  transform=" translate(-10, -10)" d="M 0 0 L 20 0 L 20 20 L 0 20 z" stroke-linecap="round" />
</g>
		<g transform="matrix(1 0 0 1 -86.48 -37.5)" id="8fQV2BgV8x8vplF2CjZzf"  >
<path style="stroke: rgb(255,255,255); stroke-width: 0; stroke-dasharray: none; stroke-linecap: butt; stroke-dashoffset: 0; stroke-linejoin: miter; stroke-miterlimit: 4; fill: rgb(255,255,255); fill-rule: nonzero; opacity: 1;" vector-effect="non-scaling-stroke"  transform=" translate(-10, -10)" d="M 0 0 L 20 0 L 20 20 L 0 20 z" stroke-linecap="round" />
</g>
		<g transform="matrix(1 0 0 1 -38.48 -37.5)" id="-uT9DLH8XDsSghJgR5hGu"  >
<path style="stroke: rgb(255,255,255); stroke-width: 0; stroke-dasharray: none; stroke-linecap: butt; stroke-dashoffset: 0; stroke-linejoin: miter; stroke-miterlimit: 4; fill: rgb(255,255,255); fill-rule: nonzero; opacity: 1;" vector-effect="non-scaling-stroke"  transform=" translate(-10, -10)" d="M 0 0 L 20 0 L 20 20 L 0 20 z" stroke-linecap="round" />
</g>
		<g transform="matrix(1 0 0 1 -14.48 -37.5)" id="2H6BoralFMt8EUBr5FQ40"  >
<path style="stroke: rgb(255,255,255); stroke-width: 0; stroke-dasharray: none; stroke-linecap: butt; stroke-dashoffset: 0; stroke-linejoin: miter; stroke-miterlimit: 4; fill: rgb(255,255,255); fill-rule: nonzero; opacity: 1;" vector-effect="non-scaling-stroke"  transform=" translate(-10, -10)" d="M 0 0 L 20 0 L 20 20 L 0 20 z" stroke-linecap="round" />
</g>
		<g transform="matrix(1 0 0 1 10.52 -37.5)" id="ZIXlcDAiGPNqZCOaWEq_U"  >
<path style="stroke: rgb(255,255,255); stroke-width: 0; stroke-dasharray: none; stroke-linecap: butt; stroke-dashoffset: 0; stroke-linejoin: miter; stroke-miterlimit: 4; fill: rgb(255,255,255); fill-rule: nonzero; opacity: 1;" vector-effect="non-scaling-stroke"  transform=" translate(-10, -10)" d="M 0 0 L 20 0 L 20 20 L 0 20 z" stroke-linecap="round" />
</g>
		<g transform="matrix(1 0 0 1 35.57 -37.5)" id="amGMcK3AH5ceHuxa8Bgn8"  >
<path style="stroke: rgb(255,255,255); stroke-width: 0; stroke-dasharray: none; stroke-linecap: butt; stroke-dashoffset: 0; stroke-linejoin: miter; stroke-miterlimit: 4; fill: rgb(255,255,255); fill-rule: nonzero; opacity: 1;" vector-effect="non-scaling-stroke"  transform=" translate(-10, -10)" d="M 0 0 L 20 0 L 20 20 L 0 20 z" stroke-linecap="round" />
</g>
		<g transform="matrix(1 0 0 1 -62.48 -37.5)" id="Ntl9bKsu85Ed4fh7YiFsW"  >
<path style="stroke: rgb(255,255,255); stroke-width: 0; stroke-dasharray: none; stroke-linecap: butt; stroke-dashoffset: 0; stroke-linejoin: miter; stroke-miterlimit: 4; fill: rgb(255,255,255); fill-rule: nonzero; opacity: 1;" vector-effect="non-scaling-stroke"  transform=" translate(-10, -10)" d="M 0 0 L 20 0 L 20 20 L 0 20 z" stroke-linecap="round" />
</g>
		<g transform="matrix(1 0 0 1 60.72 -37.5)" id="nYUhbCNnMCsbHLwTWgKaY"  >
<path style="stroke: rgb(255,255,255); stroke-width: 0; stroke-dasharray: none; stroke-linecap: butt; stroke-dashoffset: 0; stroke-linejoin: miter; stroke-miterlimit: 4; fill: rgb(255,255,255); fill-rule: nonzero; opacity: 1;" vector-effect="non-scaling-stroke"  transform=" translate(-10, -10)" d="M 0 0 L 20 0 L 20 20 L 0 20 z" stroke-linecap="round" />
</g>
		<g transform="matrix(1 0 0 1 85.72 -37.5)" id="pL4TZBl8gN8vRjAVC5M8K"  >
<path style="stroke: rgb(255,255,255); stroke-width: 0; stroke-dasharray: none; stroke-linecap: butt; stroke-dashoffset: 0; stroke-linejoin: miter; stroke-miterlimit: 4; fill: rgb(255,255,255); fill-rule: nonzero; opacity: 1;" vector-effect="non-scaling-stroke"  transform=" translate(-10, -10)" d="M 0 0 L 20 0 L 20 20 L 0 20 z" stroke-linecap="round" />
</g>
		<g transform="matrix(1 0 0 1 110.48 -37.5)" id="IccclCpK721eZyuj0jdaL"  >
<path style="stroke: rgb(255,255,255); stroke-width: 0; stroke-dasharray: none; stroke-linecap: butt; stroke-dashoffset: 0; stroke-linejoin: miter; stroke-miterlimit: 4; fill: rgb(255,255,255); fill-rule: nonzero; opacity: 1;" vector-effect="non-scaling-stroke"  transform=" translate(-10, -10)" d="M 0 0 L 20 0 L 20 20 L 0 20 z" stroke-linecap="round" />
</g>
</g>
</g>
</g>
</g>
</g>
</g>
</svg>