<?xml version="1.0" encoding="UTF-8" standalone="no" ?>
<!DOCTYPE svg PUBLIC "-//W3C//DTD SVG 1.1//EN" "http://www.w3.org/Graphics/SVG/1.1/DTD/svg11.dtd">
<svg xmlns="http://www.w3.org/2000/svg" xmlns:xlink="http://www.w3.org/1999/xlink" version="1.1" width="387" height="226" viewBox="0 0 387 226" xml:space="preserve">
<desc>Created with Fabric.js 4.6.0</desc>
<defs>
</defs>
<g transform="matrix(1 0 0 1 196.09 198.01)" style="" id="M0Qs_414IU_JWssI8eysE"  >
		<text xml:space="preserve" font-family="Arima Madurai" font-size="43" font-style="normal" font-weight="normal" letter-spacing="5.719" line-height="4.16" style="stroke: none; stroke-width: 1; stroke-dasharray: none; stroke-linecap: butt; stroke-dashoffset: 0; stroke-linejoin: miter; stroke-miterlimit: 4; fill: rgb(96,148,183); fill-rule: nonzero; opacity: 1; white-space: pre;" ><tspan x="-193.5" y="13.51" >A</tspan><tspan x="-162.33" y="13.51" >S</tspan><tspan x="-132.74" y="13.51" >L</tspan><tspan x="-106.38" y="13.51" >I</tspan><tspan x="-88.92" y="13.51" style="white-space: pre; "> </tspan><tspan x="-73.79" y="13.51" >N</tspan><tspan x="-38.66" y="13.51" >A</tspan><tspan x="-7.48" y="13.51" >Z</tspan><tspan x="22.88" y="13.51" >L</tspan><tspan x="49.24" y="13.51" >I</tspan><tspan x="66.69" y="13.51" style="white-space: pre; "> </tspan><tspan x="81.83" y="13.51" >Ş</tspan><tspan x="111.41" y="13.51" >İ</tspan><tspan x="128.87" y="13.51" >R</tspan><tspan x="160.35" y="13.51" >E</tspan></text>
</g>
<g transform="matrix(1 0 0 1 25.88 134.87)" id="yQBmed3k7gPK02UeVyumF"  >
<path style="stroke: rgb(255,255,255); stroke-width: 0; stroke-dasharray: none; stroke-linecap: butt; stroke-dashoffset: 0; stroke-linejoin: miter; stroke-miterlimit: 4; fill: rgb(255,255,255); fill-rule: nonzero; opacity: 1;" vector-effect="non-scaling-stroke"  transform=" translate(-10, -10)" d="M 0 0 L 20 0 L 20 20 L 0 20 z" stroke-linecap="round" />
</g>
<g transform="matrix(1 0 0 1 50.88 134.87)" id="Y-JhuFmtbl5PycP917sQe"  >
<path style="stroke: rgb(255,255,255); stroke-width: 0; stroke-dasharray: none; stroke-linecap: butt; stroke-dashoffset: 0; stroke-linejoin: miter; stroke-miterlimit: 4; fill: rgb(255,255,255); fill-rule: nonzero; opacity: 1;" vector-effect="non-scaling-stroke"  transform=" translate(-10, -10)" d="M 0 0 L 20 0 L 20 20 L 0 20 z" stroke-linecap="round" />
</g>
<g transform="matrix(1 0 0 1 75.88 134.87)" id="MHasQJSTD_Xa0dBsOuFjd"  >
<path style="stroke: rgb(255,255,255); stroke-width: 0; stroke-dasharray: none; stroke-linecap: butt; stroke-dashoffset: 0; stroke-linejoin: miter; stroke-miterlimit: 4; fill: rgb(255,255,255); fill-rule: nonzero; opacity: 1;" vector-effect="non-scaling-stroke"  transform=" translate(-10, -10)" d="M 0 0 L 20 0 L 20 20 L 0 20 z" stroke-linecap="round" />
</g>
<g transform="matrix(1 0 0 1 146.63 134.87)" id="ihnzaKKFDh_AiBBHex9_m"  >
<path style="stroke: rgb(255,255,255); stroke-width: 0; stroke-dasharray: none; stroke-linecap: butt; stroke-dashoffset: 0; stroke-linejoin: miter; stroke-miterlimit: 4; fill: rgb(255,255,255); fill-rule: nonzero; opacity: 1;" vector-effect="non-scaling-stroke"  transform=" translate(-55.42, -10)" d="M 0 0 L 110.83766 0 L 110.83766 20 L 0 20 z" stroke-linecap="round" />
</g>
<g transform="matrix(1 0 0 1 219.45 134.87)" id="Yf0OKkmxnhtJGZDgDZA7M"  >
<path style="stroke: rgb(255,255,255); stroke-width: 0; stroke-dasharray: none; stroke-linecap: butt; stroke-dashoffset: 0; stroke-linejoin: miter; stroke-miterlimit: 4; fill: rgb(255,255,255); fill-rule: nonzero; opacity: 1;" vector-effect="non-scaling-stroke"  transform=" translate(-12.4, -10)" d="M 0 0 L 24.79675 0 L 24.79675 20 L 0 20 z" stroke-linecap="round" />
</g>
<g transform="matrix(1 0 0 1 246.84 134.87)" id="LfthBPexVPxIp0ZPEtFNV"  >
<path style="stroke: rgb(255,255,255); stroke-width: 0; stroke-dasharray: none; stroke-linecap: butt; stroke-dashoffset: 0; stroke-linejoin: miter; stroke-miterlimit: 4; fill: rgb(255,255,255); fill-rule: nonzero; opacity: 1;" vector-effect="non-scaling-stroke"  transform=" translate(-10, -10)" d="M 0 0 L 20 0 L 20 20 L 0 20 z" stroke-linecap="round" />
</g>
<g transform="matrix(1.95 0 0 1 35.4 109.87)" id="Cz2HDzd48Lb3_zQJmmKg0"  >
<path style="stroke: rgb(255,255,255); stroke-width: 0; stroke-dasharray: none; stroke-linecap: butt; stroke-dashoffset: 0; stroke-linejoin: miter; stroke-miterlimit: 4; fill: rgb(255,255,255); fill-rule: nonzero; opacity: 1;" vector-effect="non-scaling-stroke"  transform=" translate(0, 0)" d="M -10 -10 L 10 -10 L 10 10 L -10 10 z" stroke-linecap="round" />
</g>
<g transform="matrix(1 0 0 1 69.93 109.87)" id="k8lFLcYdnYBUeKW2JVPRO"  >
<path style="stroke: rgb(255,255,255); stroke-width: 0; stroke-dasharray: none; stroke-linecap: butt; stroke-dashoffset: 0; stroke-linejoin: miter; stroke-miterlimit: 4; fill: rgb(255,255,255); fill-rule: nonzero; opacity: 1;" vector-effect="non-scaling-stroke"  transform=" translate(-10, -10)" d="M 0 0 L 20 0 L 20 20 L 0 20 z" stroke-linecap="round" />
</g>
<g transform="matrix(1 0 0 1 94.93 109.87)" id="C1YN135aH5_yHmFOVl5MG"  >
<path style="stroke: rgb(255,255,255); stroke-width: 0; stroke-dasharray: none; stroke-linecap: butt; stroke-dashoffset: 0; stroke-linejoin: miter; stroke-miterlimit: 4; fill: rgb(255,255,255); fill-rule: nonzero; opacity: 1;" vector-effect="non-scaling-stroke"  transform=" translate(-10, -10)" d="M 0 0 L 20 0 L 20 20 L 0 20 z" stroke-linecap="round" />
</g>
<g transform="matrix(1 0 0 1 119.93 109.87)" id="AXj4Mvpdc9oee8eEhBmh2"  >
<path style="stroke: rgb(255,255,255); stroke-width: 0; stroke-dasharray: none; stroke-linecap: butt; stroke-dashoffset: 0; stroke-linejoin: miter; stroke-miterlimit: 4; fill: rgb(255,255,255); fill-rule: nonzero; opacity: 1;" vector-effect="non-scaling-stroke"  transform=" translate(-10, -10)" d="M 0 0 L 20 0 L 20 20 L 0 20 z" stroke-linecap="round" />
</g>
<g transform="matrix(1 0 0 1 144.93 109.87)" id="WpJwPTA2pSp0cKgotQe3j"  >
<path style="stroke: rgb(255,255,255); stroke-width: 0; stroke-dasharray: none; stroke-linecap: butt; stroke-dashoffset: 0; stroke-linejoin: miter; stroke-miterlimit: 4; fill: rgb(255,255,255); fill-rule: nonzero; opacity: 1;" vector-effect="non-scaling-stroke"  transform=" translate(-10, -10)" d="M 0 0 L 20 0 L 20 20 L 0 20 z" stroke-linecap="round" />
</g>
<g transform="matrix(1 0 0 1 169.93 109.87)" id="5L0f1aLBDz58r4z_AM3Ex"  >
<path style="stroke: rgb(255,255,255); stroke-width: 0; stroke-dasharray: none; stroke-linecap: butt; stroke-dashoffset: 0; stroke-linejoin: miter; stroke-miterlimit: 4; fill: rgb(255,255,255); fill-rule: nonzero; opacity: 1;" vector-effect="non-scaling-stroke"  transform=" translate(-10, -10)" d="M 0 0 L 20 0 L 20 20 L 0 20 z" stroke-linecap="round" />
</g>
<g transform="matrix(2.35 0 0 1 233.39 109.87)" id="S9mCzJRBluWowsFsGotKe"  >
<path style="stroke: rgb(255,255,255); stroke-width: 0; stroke-dasharray: none; stroke-linecap: butt; stroke-dashoffset: 0; stroke-linejoin: miter; stroke-miterlimit: 4; fill: rgb(255,255,255); fill-rule: nonzero; opacity: 1;" vector-effect="non-scaling-stroke"  transform=" translate(0, 0)" d="M -10 -10 L 10 -10 L 10 10 L -10 10 z" stroke-linecap="round" />
</g>
<g transform="matrix(1 0 0 1 194.93 109.87)" id="F7PIgSDPh-1wLLomB8B8q"  >
<path style="stroke: rgb(255,255,255); stroke-width: 0; stroke-dasharray: none; stroke-linecap: butt; stroke-dashoffset: 0; stroke-linejoin: miter; stroke-miterlimit: 4; fill: rgb(255,255,255); fill-rule: nonzero; opacity: 1;" vector-effect="non-scaling-stroke"  transform=" translate(-10, -10)" d="M 0 0 L 20 0 L 20 20 L 0 20 z" stroke-linecap="round" />
</g>
<g transform="matrix(1.51 0 0 1 31.01 84.87)" id="dEkkqpjVWSt0eGqAC1UBW"  >
<path style="stroke: rgb(255,255,255); stroke-width: 0; stroke-dasharray: none; stroke-linecap: butt; stroke-dashoffset: 0; stroke-linejoin: miter; stroke-miterlimit: 4; fill: rgb(255,255,255); fill-rule: nonzero; opacity: 1;" vector-effect="non-scaling-stroke"  transform=" translate(0, 0)" d="M -10 -10 L 10 -10 L 10 10 L -10 10 z" stroke-linecap="round" />
</g>
<g transform="matrix(1 0 0 1 61.64 84.87)" id="K_X5yX4Ji3n4kL9hXKmQl"  >
<path style="stroke: rgb(255,255,255); stroke-width: 0; stroke-dasharray: none; stroke-linecap: butt; stroke-dashoffset: 0; stroke-linejoin: miter; stroke-miterlimit: 4; fill: rgb(255,255,255); fill-rule: nonzero; opacity: 1;" vector-effect="non-scaling-stroke"  transform=" translate(-10, -10)" d="M 0 0 L 20 0 L 20 20 L 0 20 z" stroke-linecap="round" />
</g>
<g transform="matrix(1 0 0 1 86.64 84.87)" id="1ORvHURXEtCpMKln9SEZi"  >
<path style="stroke: rgb(255,255,255); stroke-width: 0; stroke-dasharray: none; stroke-linecap: butt; stroke-dashoffset: 0; stroke-linejoin: miter; stroke-miterlimit: 4; fill: rgb(255,255,255); fill-rule: nonzero; opacity: 1;" vector-effect="non-scaling-stroke"  transform=" translate(-10, -10)" d="M 0 0 L 20 0 L 20 20 L 0 20 z" stroke-linecap="round" />
</g>
<g transform="matrix(1 0 0 1 111.64 84.87)" id="Le8YNmIanc-XC7zU4IBIR"  >
<path style="stroke: rgb(255,255,255); stroke-width: 0; stroke-dasharray: none; stroke-linecap: butt; stroke-dashoffset: 0; stroke-linejoin: miter; stroke-miterlimit: 4; fill: rgb(255,255,255); fill-rule: nonzero; opacity: 1;" vector-effect="non-scaling-stroke"  transform=" translate(-10, -10)" d="M 0 0 L 20 0 L 20 20 L 0 20 z" stroke-linecap="round" />
</g>
<g transform="matrix(1 0 0 1 136.64 84.87)" id="hhspu2p14bCqaK99S6d2T"  >
<path style="stroke: rgb(255,255,255); stroke-width: 0; stroke-dasharray: none; stroke-linecap: butt; stroke-dashoffset: 0; stroke-linejoin: miter; stroke-miterlimit: 4; fill: rgb(255,255,255); fill-rule: nonzero; opacity: 1;" vector-effect="non-scaling-stroke"  transform=" translate(-10, -10)" d="M 0 0 L 20 0 L 20 20 L 0 20 z" stroke-linecap="round" />
</g>
<g transform="matrix(1 0 0 1 161.64 84.87)" id="_FFkvh-I2L6OdoV9va9kr"  >
<path style="stroke: rgb(255,255,255); stroke-width: 0; stroke-dasharray: none; stroke-linecap: butt; stroke-dashoffset: 0; stroke-linejoin: miter; stroke-miterlimit: 4; fill: rgb(255,255,255); fill-rule: nonzero; opacity: 1;" vector-effect="non-scaling-stroke"  transform=" translate(-10, -10)" d="M 0 0 L 20 0 L 20 20 L 0 20 z" stroke-linecap="round" />
</g>
<g transform="matrix(1 0 0 1 186.64 84.87)" id="ylKV91IKq5WpTnklm62ED"  >
<path style="stroke: rgb(255,255,255); stroke-width: 0; stroke-dasharray: none; stroke-linecap: butt; stroke-dashoffset: 0; stroke-linejoin: miter; stroke-miterlimit: 4; fill: rgb(255,255,255); fill-rule: nonzero; opacity: 1;" vector-effect="non-scaling-stroke"  transform=" translate(-10, -10)" d="M 0 0 L 20 0 L 20 20 L 0 20 z" stroke-linecap="round" />
</g>
<g transform="matrix(1.51 0 0 1 241.74 84.87)" id="T7LMK5MuPWxmiHLQ1N7o7"  >
<path style="stroke: rgb(255,255,255); stroke-width: 0; stroke-dasharray: none; stroke-linecap: butt; stroke-dashoffset: 0; stroke-linejoin: miter; stroke-miterlimit: 4; fill: rgb(255,255,255); fill-rule: nonzero; opacity: 1;" vector-effect="non-scaling-stroke"  transform=" translate(0, 0)" d="M -10 -10 L 10 -10 L 10 10 L -10 10 z" stroke-linecap="round" />
</g>
<g transform="matrix(1 0 0 1 211.64 84.87)" id="RXWd9fVvXfwZS6AX4y-gH"  >
<path style="stroke: rgb(255,255,255); stroke-width: 0; stroke-dasharray: none; stroke-linecap: butt; stroke-dashoffset: 0; stroke-linejoin: miter; stroke-miterlimit: 4; fill: rgb(255,255,255); fill-rule: nonzero; opacity: 1;" vector-effect="non-scaling-stroke"  transform=" translate(-10, -10)" d="M 0 0 L 20 0 L 20 20 L 0 20 z" stroke-linecap="round" />
</g>
<g transform="matrix(1 0 0 1 25.88 59.87)" id="RYsn717BP1Ov-_PnWJQAP"  >
<path style="stroke: rgb(255,255,255); stroke-width: 0; stroke-dasharray: none; stroke-linecap: butt; stroke-dashoffset: 0; stroke-linejoin: miter; stroke-miterlimit: 4; fill: rgb(255,255,255); fill-rule: nonzero; opacity: 1;" vector-effect="non-scaling-stroke"  transform=" translate(-10, -10)" d="M 0 0 L 20 0 L 20 20 L 0 20 z" stroke-linecap="round" />
</g>
<g transform="matrix(1 0 0 1 49.88 59.87)" id="0MFwnO5v_I6DyqOrhBorQ"  >
<path style="stroke: rgb(255,255,255); stroke-width: 0; stroke-dasharray: none; stroke-linecap: butt; stroke-dashoffset: 0; stroke-linejoin: miter; stroke-miterlimit: 4; fill: rgb(255,255,255); fill-rule: nonzero; opacity: 1;" vector-effect="non-scaling-stroke"  transform=" translate(-10, -10)" d="M 0 0 L 20 0 L 20 20 L 0 20 z" stroke-linecap="round" />
</g>
<g transform="matrix(1 0 0 1 97.88 59.87)" id="YqxhlmvLWi_m6OfGEpCwc"  >
<path style="stroke: rgb(255,255,255); stroke-width: 0; stroke-dasharray: none; stroke-linecap: butt; stroke-dashoffset: 0; stroke-linejoin: miter; stroke-miterlimit: 4; fill: rgb(255,255,255); fill-rule: nonzero; opacity: 1;" vector-effect="non-scaling-stroke"  transform=" translate(-10, -10)" d="M 0 0 L 20 0 L 20 20 L 0 20 z" stroke-linecap="round" />
</g>
<g transform="matrix(1 0 0 1 121.88 59.87)" id="Hx2txhf5PpjUKywoXRx9r"  >
<path style="stroke: rgb(255,255,255); stroke-width: 0; stroke-dasharray: none; stroke-linecap: butt; stroke-dashoffset: 0; stroke-linejoin: miter; stroke-miterlimit: 4; fill: rgb(255,255,255); fill-rule: nonzero; opacity: 1;" vector-effect="non-scaling-stroke"  transform=" translate(-10, -10)" d="M 0 0 L 20 0 L 20 20 L 0 20 z" stroke-linecap="round" />
</g>
<g transform="matrix(1 0 0 1 146.88 59.87)" id="TqYFiAhsOTFq23vx_fh2R"  >
<path style="stroke: rgb(255,255,255); stroke-width: 0; stroke-dasharray: none; stroke-linecap: butt; stroke-dashoffset: 0; stroke-linejoin: miter; stroke-miterlimit: 4; fill: rgb(255,255,255); fill-rule: nonzero; opacity: 1;" vector-effect="non-scaling-stroke"  transform=" translate(-10, -10)" d="M 0 0 L 20 0 L 20 20 L 0 20 z" stroke-linecap="round" />
</g>
<g transform="matrix(1 0 0 1 171.93 59.87)" id="UZF0PCBDCA_oKqUwsoKrk"  >
<path style="stroke: rgb(255,255,255); stroke-width: 0; stroke-dasharray: none; stroke-linecap: butt; stroke-dashoffset: 0; stroke-linejoin: miter; stroke-miterlimit: 4; fill: rgb(255,255,255); fill-rule: nonzero; opacity: 1;" vector-effect="non-scaling-stroke"  transform=" translate(-10, -10)" d="M 0 0 L 20 0 L 20 20 L 0 20 z" stroke-linecap="round" />
</g>
<g transform="matrix(1 0 0 1 73.88 59.87)" id="_ALjlZZAZTRFff8RV62MA"  >
<path style="stroke: rgb(255,255,255); stroke-width: 0; stroke-dasharray: none; stroke-linecap: butt; stroke-dashoffset: 0; stroke-linejoin: miter; stroke-miterlimit: 4; fill: rgb(255,255,255); fill-rule: nonzero; opacity: 1;" vector-effect="non-scaling-stroke"  transform=" translate(-10, -10)" d="M 0 0 L 20 0 L 20 20 L 0 20 z" stroke-linecap="round" />
</g>
<g transform="matrix(1 0 0 1 197.08 59.87)" id="3akx1Ro55Hpqn-fUioA5W"  >
<path style="stroke: rgb(255,255,255); stroke-width: 0; stroke-dasharray: none; stroke-linecap: butt; stroke-dashoffset: 0; stroke-linejoin: miter; stroke-miterlimit: 4; fill: rgb(255,255,255); fill-rule: nonzero; opacity: 1;" vector-effect="non-scaling-stroke"  transform=" translate(-10, -10)" d="M 0 0 L 20 0 L 20 20 L 0 20 z" stroke-linecap="round" />
</g>
<g transform="matrix(1 0 0 1 222.08 59.87)" id="3XFEwDHv9q5NZ290RX0o_"  >
<path style="stroke: rgb(255,255,255); stroke-width: 0; stroke-dasharray: none; stroke-linecap: butt; stroke-dashoffset: 0; stroke-linejoin: miter; stroke-miterlimit: 4; fill: rgb(255,255,255); fill-rule: nonzero; opacity: 1;" vector-effect="non-scaling-stroke"  transform=" translate(-10, -10)" d="M 0 0 L 20 0 L 20 20 L 0 20 z" stroke-linecap="round" />
</g>
<g transform="matrix(1 0 0 1 246.84 59.87)" id="s5kCoXAAvbUOydM67I6pW"  >
<path style="stroke: rgb(255,255,255); stroke-width: 0; stroke-dasharray: none; stroke-linecap: butt; stroke-dashoffset: 0; stroke-linejoin: miter; stroke-miterlimit: 4; fill: rgb(255,255,255); fill-rule: nonzero; opacity: 1;" vector-effect="non-scaling-stroke"  transform=" translate(-10, -10)" d="M 0 0 L 20 0 L 20 20 L 0 20 z" stroke-linecap="round" />
</g>
<g transform="matrix(-0.39 0 0 -1 363.63 81.33)" id="oAM6BGhv2JTwFEDhH4w2m"  >
<path style="stroke: none; stroke-width: 1; stroke-dasharray: none; stroke-linecap: butt; stroke-dashoffset: 0; stroke-linejoin: miter; stroke-miterlimit: 4; fill: rgb(255,255,255); fill-rule: nonzero; opacity: 1;" vector-effect="non-scaling-stroke"  transform=" translate(-16.92, -2.75)" d="M 24.73951 0 L 9.0923 0 C 4.10211 0 0 1.15366 0 2.75 C 0 4.34634 4.10211 5.5 9.0923 5.5 L 24.73951 5.5 C 29.7297 5.5 33.83181 4.34634 33.83181 2.75 C 33.83181 1.15366 29.729699999999998 0 24.739509999999996 0 z" stroke-linecap="round" />
</g>
<g transform="matrix(1 0 0 1 138.76 84.87)" id="cd-vn8Y1jUJ36BewgkzZX"  >
<g style="" vector-effect="non-scaling-stroke"   >
		<g transform="matrix(2.88 0 0 1.64 0 0)" id="Kq-SewsNxuxSJo9YlIMuz"  >
<path style="stroke: rgb(178,180,178); stroke-width: 0; stroke-dasharray: none; stroke-linecap: butt; stroke-dashoffset: 0; stroke-linejoin: miter; stroke-miterlimit: 4; fill: rgb(97,148,183); fill-rule: nonzero; opacity: 1;" vector-effect="non-scaling-stroke"  transform=" translate(0, 0)" d="M -47.11815 -34.93806 C -47.11815 -41.66494 -44.01293 -47.11816 -40.18245 -47.11816 L 40.182469999999995 -47.11816 L 40.182469999999995 -47.11816 C 44.01295 -47.11816 47.11816999999999 -41.66494 47.11816999999999 -34.93806000000001 L 47.11816999999999 34.93804999999999 L 47.11816999999999 34.93804999999999 C 47.11816999999999 41.66492999999999 44.01294999999999 47.118149999999986 40.182469999999995 47.118149999999986 L -40.18245 47.118149999999986 L -40.18245 47.118149999999986 C -44.012930000000004 47.118149999999986 -47.11815 41.664929999999984 -47.11815 34.93804999999999 z" stroke-linecap="round" />
</g>
		<g transform="matrix(1 0 0 1 -1.31 16.04)" id="vnuIUHk65tOpiwFcD5xrm"  >
<g style="" vector-effect="non-scaling-stroke"   >
		<g transform="matrix(1 0 0 1 -110.5 37.5)" id="LctDBhHiuiuPReQv5N-qP"  >
<path style="stroke: rgb(255,255,255); stroke-width: 0; stroke-dasharray: none; stroke-linecap: butt; stroke-dashoffset: 0; stroke-linejoin: miter; stroke-miterlimit: 4; fill: rgb(243,243,243); fill-rule: nonzero; opacity: 1;" vector-effect="non-scaling-stroke"  transform=" translate(-10, -10)" d="M 0 0 L 20 0 L 20 20 L 0 20 z" stroke-linecap="round" />
</g>
		<g transform="matrix(1 0 0 1 -85.5 37.5)" id="CH8chDxyYPwqspU_cD9pU"  >
<path style="stroke: rgb(255,255,255); stroke-width: 0; stroke-dasharray: none; stroke-linecap: butt; stroke-dashoffset: 0; stroke-linejoin: miter; stroke-miterlimit: 4; fill: rgb(243,243,243); fill-rule: nonzero; opacity: 1;" vector-effect="non-scaling-stroke"  transform=" translate(-10, -10)" d="M 0 0 L 20 0 L 20 20 L 0 20 z" stroke-linecap="round" />
</g>
		<g transform="matrix(1 0 0 1 -60.5 37.5)" id="F8NQy_MIvQMzMwxb1UFYo"  >
<path style="stroke: rgb(255,255,255); stroke-width: 0; stroke-dasharray: none; stroke-linecap: butt; stroke-dashoffset: 0; stroke-linejoin: miter; stroke-miterlimit: 4; fill: rgb(243,243,243); fill-rule: nonzero; opacity: 1;" vector-effect="non-scaling-stroke"  transform=" translate(-10, -10)" d="M 0 0 L 20 0 L 20 20 L 0 20 z" stroke-linecap="round" />
</g>
		<g transform="matrix(1 0 0 1 10.25 37.5)" id="ugk3LPUmBaodP9F9rCMVJ"  >
<path style="stroke: rgb(255,255,255); stroke-width: 0; stroke-dasharray: none; stroke-linecap: butt; stroke-dashoffset: 0; stroke-linejoin: miter; stroke-miterlimit: 4; fill: rgb(243,243,243); fill-rule: nonzero; opacity: 1;" vector-effect="non-scaling-stroke"  transform=" translate(-55.42, -10)" d="M 0 0 L 110.83766 0 L 110.83766 20 L 0 20 z" stroke-linecap="round" />
</g>
		<g transform="matrix(1 0 0 1 83.07 37.5)" id="dU85VXE7WvGaSP2oaIkBO"  >
<path style="stroke: rgb(255,255,255); stroke-width: 0; stroke-dasharray: none; stroke-linecap: butt; stroke-dashoffset: 0; stroke-linejoin: miter; stroke-miterlimit: 4; fill: rgb(243,243,243); fill-rule: nonzero; opacity: 1;" vector-effect="non-scaling-stroke"  transform=" translate(-12.4, -10)" d="M 0 0 L 24.79675 0 L 24.79675 20 L 0 20 z" stroke-linecap="round" />
</g>
		<g transform="matrix(1 0 0 1 110.46 37.5)" id="yjEuBXv-hklTlBDnjECz0"  >
<path style="stroke: rgb(255,255,255); stroke-width: 0; stroke-dasharray: none; stroke-linecap: butt; stroke-dashoffset: 0; stroke-linejoin: miter; stroke-miterlimit: 4; fill: rgb(243,243,243); fill-rule: nonzero; opacity: 1;" vector-effect="non-scaling-stroke"  transform=" translate(-10, -10)" d="M 0 0 L 20 0 L 20 20 L 0 20 z" stroke-linecap="round" />
</g>
		<g transform="matrix(1.95 0 0 1 -100.98 12.5)" id="hjWgd0e3IjxmtXvbc7g87"  >
<path style="stroke: rgb(255,255,255); stroke-width: 0; stroke-dasharray: none; stroke-linecap: butt; stroke-dashoffset: 0; stroke-linejoin: miter; stroke-miterlimit: 4; fill: rgb(243,243,243); fill-rule: nonzero; opacity: 1;" vector-effect="non-scaling-stroke"  transform=" translate(0, 0)" d="M -10 -10 L 10 -10 L 10 10 L -10 10 z" stroke-linecap="round" />
</g>
		<g transform="matrix(1 0 0 1 -66.45 12.5)" id="qzVoC6xg_AN5pb9eomAHo"  >
<path style="stroke: rgb(255,255,255); stroke-width: 0; stroke-dasharray: none; stroke-linecap: butt; stroke-dashoffset: 0; stroke-linejoin: miter; stroke-miterlimit: 4; fill: rgb(243,243,243); fill-rule: nonzero; opacity: 1;" vector-effect="non-scaling-stroke"  transform=" translate(-10, -10)" d="M 0 0 L 20 0 L 20 20 L 0 20 z" stroke-linecap="round" />
</g>
		<g transform="matrix(1 0 0 1 -41.45 12.5)" id="eWt7H02aVjgvvdtrg96sM"  >
<path style="stroke: rgb(255,255,255); stroke-width: 0; stroke-dasharray: none; stroke-linecap: butt; stroke-dashoffset: 0; stroke-linejoin: miter; stroke-miterlimit: 4; fill: rgb(243,243,243); fill-rule: nonzero; opacity: 1;" vector-effect="non-scaling-stroke"  transform=" translate(-10, -10)" d="M 0 0 L 20 0 L 20 20 L 0 20 z" stroke-linecap="round" />
</g>
		<g transform="matrix(1 0 0 1 -16.45 12.5)" id="Yc47X7f1npjxzR9y50mUV"  >
<path style="stroke: rgb(255,255,255); stroke-width: 0; stroke-dasharray: none; stroke-linecap: butt; stroke-dashoffset: 0; stroke-linejoin: miter; stroke-miterlimit: 4; fill: rgb(243,243,243); fill-rule: nonzero; opacity: 1;" vector-effect="non-scaling-stroke"  transform=" translate(-10, -10)" d="M 0 0 L 20 0 L 20 20 L 0 20 z" stroke-linecap="round" />
</g>
		<g transform="matrix(1 0 0 1 8.55 12.5)" id="7wG0k8mVRu-uNK75Bghwq"  >
<path style="stroke: rgb(255,255,255); stroke-width: 0; stroke-dasharray: none; stroke-linecap: butt; stroke-dashoffset: 0; stroke-linejoin: miter; stroke-miterlimit: 4; fill: rgb(243,243,243); fill-rule: nonzero; opacity: 1;" vector-effect="non-scaling-stroke"  transform=" translate(-10, -10)" d="M 0 0 L 20 0 L 20 20 L 0 20 z" stroke-linecap="round" />
</g>
		<g transform="matrix(1 0 0 1 33.55 12.5)" id="lH0suFPdrd-aMlAsqf9bP"  >
<path style="stroke: rgb(255,255,255); stroke-width: 0; stroke-dasharray: none; stroke-linecap: butt; stroke-dashoffset: 0; stroke-linejoin: miter; stroke-miterlimit: 4; fill: rgb(243,243,243); fill-rule: nonzero; opacity: 1;" vector-effect="non-scaling-stroke"  transform=" translate(-10, -10)" d="M 0 0 L 20 0 L 20 20 L 0 20 z" stroke-linecap="round" />
</g>
		<g transform="matrix(2.35 0 0 1 97.01 12.5)" id="aasuU03ih7by3M9sKghJF"  >
<path style="stroke: rgb(255,255,255); stroke-width: 0; stroke-dasharray: none; stroke-linecap: butt; stroke-dashoffset: 0; stroke-linejoin: miter; stroke-miterlimit: 4; fill: rgb(243,243,243); fill-rule: nonzero; opacity: 1;" vector-effect="non-scaling-stroke"  transform=" translate(0, 0)" d="M -10 -10 L 10 -10 L 10 10 L -10 10 z" stroke-linecap="round" />
</g>
		<g transform="matrix(1 0 0 1 58.55 12.5)" id="L475ihUn5ax26HucASJrP"  >
<path style="stroke: rgb(255,255,255); stroke-width: 0; stroke-dasharray: none; stroke-linecap: butt; stroke-dashoffset: 0; stroke-linejoin: miter; stroke-miterlimit: 4; fill: rgb(243,243,243); fill-rule: nonzero; opacity: 1;" vector-effect="non-scaling-stroke"  transform=" translate(-10, -10)" d="M 0 0 L 20 0 L 20 20 L 0 20 z" stroke-linecap="round" />
</g>
		<g transform="matrix(1.51 0 0 1 -105.37 -12.5)" id="xy3fYOFT6BX5gfpOCUZNc"  >
<path style="stroke: rgb(255,255,255); stroke-width: 0; stroke-dasharray: none; stroke-linecap: butt; stroke-dashoffset: 0; stroke-linejoin: miter; stroke-miterlimit: 4; fill: rgb(243,243,243); fill-rule: nonzero; opacity: 1;" vector-effect="non-scaling-stroke"  transform=" translate(0, 0)" d="M -10 -10 L 10 -10 L 10 10 L -10 10 z" stroke-linecap="round" />
</g>
		<g transform="matrix(1 0 0 1 -74.74 -12.5)" id="Q4G7JSpj2xuIb8SYLQeXs"  >
<path style="stroke: rgb(255,255,255); stroke-width: 0; stroke-dasharray: none; stroke-linecap: butt; stroke-dashoffset: 0; stroke-linejoin: miter; stroke-miterlimit: 4; fill: rgb(243,243,243); fill-rule: nonzero; opacity: 1;" vector-effect="non-scaling-stroke"  transform=" translate(-10, -10)" d="M 0 0 L 20 0 L 20 20 L 0 20 z" stroke-linecap="round" />
</g>
		<g transform="matrix(1 0 0 1 -49.74 -12.5)" id="muIJLmnpJibRKDxK52_tr"  >
<path style="stroke: rgb(255,255,255); stroke-width: 0; stroke-dasharray: none; stroke-linecap: butt; stroke-dashoffset: 0; stroke-linejoin: miter; stroke-miterlimit: 4; fill: rgb(243,243,243); fill-rule: nonzero; opacity: 1;" vector-effect="non-scaling-stroke"  transform=" translate(-10, -10)" d="M 0 0 L 20 0 L 20 20 L 0 20 z" stroke-linecap="round" />
</g>
		<g transform="matrix(1 0 0 1 -24.74 -12.5)" id="ffo2HAF9BhXv128DQtI2Z"  >
<path style="stroke: rgb(255,255,255); stroke-width: 0; stroke-dasharray: none; stroke-linecap: butt; stroke-dashoffset: 0; stroke-linejoin: miter; stroke-miterlimit: 4; fill: rgb(243,243,243); fill-rule: nonzero; opacity: 1;" vector-effect="non-scaling-stroke"  transform=" translate(-10, -10)" d="M 0 0 L 20 0 L 20 20 L 0 20 z" stroke-linecap="round" />
</g>
		<g transform="matrix(1 0 0 1 0.26 -12.5)" id="fcitQWcMS0ynwgNqtjhmN"  >
<path style="stroke: rgb(255,255,255); stroke-width: 0; stroke-dasharray: none; stroke-linecap: butt; stroke-dashoffset: 0; stroke-linejoin: miter; stroke-miterlimit: 4; fill: rgb(243,243,243); fill-rule: nonzero; opacity: 1;" vector-effect="non-scaling-stroke"  transform=" translate(-10, -10)" d="M 0 0 L 20 0 L 20 20 L 0 20 z" stroke-linecap="round" />
</g>
		<g transform="matrix(1 0 0 1 25.26 -12.5)" id="8D9dtodUXGyfR7rHMNAFz"  >
<path style="stroke: rgb(255,255,255); stroke-width: 0; stroke-dasharray: none; stroke-linecap: butt; stroke-dashoffset: 0; stroke-linejoin: miter; stroke-miterlimit: 4; fill: rgb(243,243,243); fill-rule: nonzero; opacity: 1;" vector-effect="non-scaling-stroke"  transform=" translate(-10, -10)" d="M 0 0 L 20 0 L 20 20 L 0 20 z" stroke-linecap="round" />
</g>
		<g transform="matrix(1 0 0 1 50.26 -12.5)" id="9quNj8yavyyu-A0i8_lFT"  >
<path style="stroke: rgb(255,255,255); stroke-width: 0; stroke-dasharray: none; stroke-linecap: butt; stroke-dashoffset: 0; stroke-linejoin: miter; stroke-miterlimit: 4; fill: rgb(243,243,243); fill-rule: nonzero; opacity: 1;" vector-effect="non-scaling-stroke"  transform=" translate(-10, -10)" d="M 0 0 L 20 0 L 20 20 L 0 20 z" stroke-linecap="round" />
</g>
		<g transform="matrix(1.51 0 0 1 105.36 -12.5)" id="FV8Q2SH4ZQucpjEzIYvJQ"  >
<path style="stroke: rgb(255,255,255); stroke-width: 0; stroke-dasharray: none; stroke-linecap: butt; stroke-dashoffset: 0; stroke-linejoin: miter; stroke-miterlimit: 4; fill: rgb(243,243,243); fill-rule: nonzero; opacity: 1;" vector-effect="non-scaling-stroke"  transform=" translate(0, 0)" d="M -10 -10 L 10 -10 L 10 10 L -10 10 z" stroke-linecap="round" />
</g>
		<g transform="matrix(1 0 0 1 75.26 -12.5)" id="kQcXRlFHlVFdWNbfxLLGv"  >
<path style="stroke: rgb(255,255,255); stroke-width: 0; stroke-dasharray: none; stroke-linecap: butt; stroke-dashoffset: 0; stroke-linejoin: miter; stroke-miterlimit: 4; fill: rgb(243,243,243); fill-rule: nonzero; opacity: 1;" vector-effect="non-scaling-stroke"  transform=" translate(-10, -10)" d="M 0 0 L 20 0 L 20 20 L 0 20 z" stroke-linecap="round" />
</g>
		<g transform="matrix(1 0 0 1 -110.5 -37.5)" id="NatnaJ5_8uctVQdcIQzG9"  >
<path style="stroke: rgb(255,255,255); stroke-width: 0; stroke-dasharray: none; stroke-linecap: butt; stroke-dashoffset: 0; stroke-linejoin: miter; stroke-miterlimit: 4; fill: rgb(243,243,243); fill-rule: nonzero; opacity: 1;" vector-effect="non-scaling-stroke"  transform=" translate(-10, -10)" d="M 0 0 L 20 0 L 20 20 L 0 20 z" stroke-linecap="round" />
</g>
		<g transform="matrix(1 0 0 1 -86.5 -37.5)" id="81lpUcB0BYTXDbOhw9tFW"  >
<path style="stroke: rgb(255,255,255); stroke-width: 0; stroke-dasharray: none; stroke-linecap: butt; stroke-dashoffset: 0; stroke-linejoin: miter; stroke-miterlimit: 4; fill: rgb(242,242,243); fill-rule: nonzero; opacity: 1;" vector-effect="non-scaling-stroke"  transform=" translate(-10, -10)" d="M 0 0 L 20 0 L 20 20 L 0 20 z" stroke-linecap="round" />
</g>
		<g transform="matrix(1 0 0 1 -38.5 -37.5)" id="iwrGDNOMV1W-4tTL7EBfr"  >
<path style="stroke: rgb(255,255,255); stroke-width: 0; stroke-dasharray: none; stroke-linecap: butt; stroke-dashoffset: 0; stroke-linejoin: miter; stroke-miterlimit: 4; fill: rgb(243,243,243); fill-rule: nonzero; opacity: 1;" vector-effect="non-scaling-stroke"  transform=" translate(-10, -10)" d="M 0 0 L 20 0 L 20 20 L 0 20 z" stroke-linecap="round" />
</g>
		<g transform="matrix(1 0 0 1 -14.5 -37.5)" id="JnQCk2MWdLBArvR6GwfxM"  >
<path style="stroke: rgb(255,255,255); stroke-width: 0; stroke-dasharray: none; stroke-linecap: butt; stroke-dashoffset: 0; stroke-linejoin: miter; stroke-miterlimit: 4; fill: rgb(243,243,243); fill-rule: nonzero; opacity: 1;" vector-effect="non-scaling-stroke"  transform=" translate(-10, -10)" d="M 0 0 L 20 0 L 20 20 L 0 20 z" stroke-linecap="round" />
</g>
		<g transform="matrix(1 0 0 1 10.5 -37.5)" id="yKsgykZNtQ5mcawxN-Mgk"  >
<path style="stroke: rgb(255,255,255); stroke-width: 0; stroke-dasharray: none; stroke-linecap: butt; stroke-dashoffset: 0; stroke-linejoin: miter; stroke-miterlimit: 4; fill: rgb(243,243,243); fill-rule: nonzero; opacity: 1;" vector-effect="non-scaling-stroke"  transform=" translate(-10, -10)" d="M 0 0 L 20 0 L 20 20 L 0 20 z" stroke-linecap="round" />
</g>
		<g transform="matrix(1 0 0 1 35.55 -37.5)" id="sdrdCoHVyfIec6BMp9ydL"  >
<path style="stroke: rgb(255,255,255); stroke-width: 0; stroke-dasharray: none; stroke-linecap: butt; stroke-dashoffset: 0; stroke-linejoin: miter; stroke-miterlimit: 4; fill: rgb(243,243,243); fill-rule: nonzero; opacity: 1;" vector-effect="non-scaling-stroke"  transform=" translate(-10, -10)" d="M 0 0 L 20 0 L 20 20 L 0 20 z" stroke-linecap="round" />
</g>
		<g transform="matrix(1 0 0 1 -62.5 -37.5)" id="iRkrWoMnPs2Ky8cbK8EcI"  >
<path style="stroke: rgb(255,255,255); stroke-width: 0; stroke-dasharray: none; stroke-linecap: butt; stroke-dashoffset: 0; stroke-linejoin: miter; stroke-miterlimit: 4; fill: rgb(243,243,243); fill-rule: nonzero; opacity: 1;" vector-effect="non-scaling-stroke"  transform=" translate(-10, -10)" d="M 0 0 L 20 0 L 20 20 L 0 20 z" stroke-linecap="round" />
</g>
		<g transform="matrix(1 0 0 1 60.7 -37.5)" id="b4I8ACylCnYRa9PTTizg9"  >
<path style="stroke: rgb(255,255,255); stroke-width: 0; stroke-dasharray: none; stroke-linecap: butt; stroke-dashoffset: 0; stroke-linejoin: miter; stroke-miterlimit: 4; fill: rgb(243,243,243); fill-rule: nonzero; opacity: 1;" vector-effect="non-scaling-stroke"  transform=" translate(-10, -10)" d="M 0 0 L 20 0 L 20 20 L 0 20 z" stroke-linecap="round" />
</g>
		<g transform="matrix(1 0 0 1 85.7 -37.5)" id="H9qg9TSM2dbcpKvmeccll"  >
<path style="stroke: rgb(255,255,255); stroke-width: 0; stroke-dasharray: none; stroke-linecap: butt; stroke-dashoffset: 0; stroke-linejoin: miter; stroke-miterlimit: 4; fill: rgb(243,243,243); fill-rule: nonzero; opacity: 1;" vector-effect="non-scaling-stroke"  transform=" translate(-10, -10)" d="M 0 0 L 20 0 L 20 20 L 0 20 z" stroke-linecap="round" />
</g>
		<g transform="matrix(1 0 0 1 110.46 -37.5)" id="_A2NxkqKJz9xWXh3TXNMj"  >
<path style="stroke: rgb(255,255,255); stroke-width: 0; stroke-dasharray: none; stroke-linecap: butt; stroke-dashoffset: 0; stroke-linejoin: miter; stroke-miterlimit: 4; fill: rgb(243,243,243); fill-rule: nonzero; opacity: 1;" vector-effect="non-scaling-stroke"  transform=" translate(-10, -10)" d="M 0 0 L 20 0 L 20 20 L 0 20 z" stroke-linecap="round" />
</g>
</g>
</g>
</g>
</g>
<g transform="matrix(1 0 0 1 333.94 84.87)" id="XfcY5qcUgQlgq-yajfAej"  >
<g style="" vector-effect="non-scaling-stroke"   >
		<g transform="matrix(1 0 0 1 0 0)" id="9SBP91XYbZzNCDUlepsKa"  >
<path style="stroke: rgb(178,180,178); stroke-width: 0; stroke-dasharray: none; stroke-linecap: butt; stroke-dashoffset: 0; stroke-linejoin: miter; stroke-miterlimit: 4; fill: rgb(96,149,183); fill-rule: nonzero; opacity: 1;" vector-effect="non-scaling-stroke"  transform=" translate(-50, -50)" d="M 50 0 C 77.6 0 100 22.4 100 50 C 100 77.6 77.6 100 50 100 C 22.4 100 0 77.6 0 50 C 0 22.4 22.4 0 50 0 Z" stroke-linecap="round" />
</g>
		<g transform="matrix(0.48 0 0 0.48 0 0)" id="m67nVHOLctM44w7a7roaw"  >
<path style="stroke: rgb(243,243,243); stroke-width: 6; stroke-dasharray: none; stroke-linecap: butt; stroke-dashoffset: 0; stroke-linejoin: miter; stroke-miterlimit: 4; fill: rgb(96,149,183); fill-rule: nonzero; opacity: 1;" vector-effect="non-scaling-stroke"  transform=" translate(0, 0)" d="M 0 -50 C 27.6 -50 50 -27.6 50 0 C 50 27.6 27.6 50 0 50 C -27.6 50 -50 27.6 -50 0 C -50 -27.6 -27.6 -50 0 -50 z" stroke-linecap="round" />
</g>
		<g transform="matrix(-0.39 0 0 -1 30.77 0)" id="0IavnBPOwAhpPDWc8K7dG"  >
<path style="stroke: none; stroke-width: 1; stroke-dasharray: none; stroke-linecap: butt; stroke-dashoffset: 0; stroke-linejoin: miter; stroke-miterlimit: 4; fill: rgb(243,243,243); fill-rule: nonzero; opacity: 1;" vector-effect="non-scaling-stroke"  transform=" translate(-16.92, -2.75)" d="M 24.73951 0 L 9.0923 0 C 4.10211 0 0 1.15366 0 2.75 C 0 4.34634 4.10211 5.5 9.0923 5.5 L 24.73951 5.5 C 29.7297 5.5 33.83181 4.34634 33.83181 2.75 C 33.83181 1.15366 29.729699999999998 0 24.739509999999996 0 z" stroke-linecap="round" />
</g>
</g>
</g>
</svg>